{"title":"Jimmy.Fallon.2016.10.07.Tyler Perry.720p.HDTV.x264.mp4","uid":16008431,"size":809461866,"categoryP":"video","categoryS":"hd___tv_shows","magnet":"?xt=urn:btih:9a6c2615508e4431553a46f9a43acdc228dcc0af&amp;dn=Jimmy.Fallon.2016.10.07.Tyler+Perry.720p.HDTV.x264.mp4&amp;tr=udp%3A%2F%2Ftracker.leechers-paradise.org%3A6969&amp;tr=udp%3A%2F%2Fzer0day.ch%3A1337&amp;tr=udp%3A%2F%2Fopen.demonii.com%3A1337&amp;tr=udp%3A%2F%2Ftracker.coppersurfer.tk%3A6969&amp;tr=udp%3A%2F%2Fexodus.desync.com%3A6969","seeders":1,"leechers":1,"uploader":"vertigo3d","files":1,"time":1476207426,"description":"Tyler Perry; Abigail Spencer; Van Morrison\r\n\r\n\r\nVideo\r\nID                          : 1\r\nFormat                      : AVC\r\nFormat/Info                 : Advanced Video Codec\r\nFormat profile              :   \r\nFormat settings, CABAC      : Yes\r\nFormat settings, ReFrames   : 4 frames\r\nCodec ID                    : avc1\r\nCodec ID/Info               : Advanced Video Coding\r\nDuration                    : 41mn 7s\r\nBit rate                    : 2 457 Kbps\r\nWidth                       : 1 280 pixels\r\nHeight                      : 718 pixels\r\nDisplay aspect ratio        : 16:9\r\nOriginal display aspect rat : 16:9\r\nFrame rate mode             : Constant\r\nFrame rate                  : 29.970 (30000/1001) fps\r\nColor space                 : YUV\r\nChroma subsampling          : 4:2:0\r\nBit depth                   : 8 bits\r\nScan type                   : Progressive\r\nBits/(Pixel*Frame)          : 0.089\r\nStream size                 : 723 MiB (94%)\r\nWriting library             : x264 core 142 r2479 dd79a61\r\n\r\n\r\nAudio\r\nID                          : 2\r\nFormat                      : AAC\r\nFormat/Info                 : Advanced Audio Codec\r\nFormat profile              : LC\r\nCodec ID                    : 40\r\nDuration                    : 41mn 7s\r\nBit rate mode               : Variable\r\nBit rate                    : 160 Kbps\r\nChannel(s)                  : 2 channels\r\nChannel positions           : Front: L R\r\nSampling rate               : 48.0 KHz\r\nFrame rate                  : 46.875 fps (1024 spf)\r\nCompression mode            : Lossy\r\nStream size                 : 47.1 MiB (6%)\r\nTitle                       : Stereo / Stereo\r\nLanguage                    : English","torrent":{"xt":"urn:btih:9a6c2615508e4431553a46f9a43acdc228dcc0af","amp;dn":"Jimmy.Fallon.2016.10.07.Tyler+Perry.720p.HDTV.x264.mp4","amp;tr":["udp%3A%2F%2Ftracker.leechers-paradise.org%3A6969","udp%3A%2F%2Fzer0day.ch%3A1337","udp%3A%2F%2Fopen.demonii.com%3A1337","udp%3A%2F%2Ftracker.coppersurfer.tk%3A6969","udp%3A%2F%2Fexodus.desync.com%3A6969"],"infoHash":"9a6c2615508e4431553a46f9a43acdc228dcc0af","infoHashBuffer":{"type":"Buffer","data":[154,108,38,21,80,142,68,49,85,58,70,249,164,58,205,194,40,220,192,175]},"announce":[],"urlList":[]}}